<?xml version="1.0" encoding="UTF-8" standalone="no"?>
<!-- Created with Inkscape (http://www.inkscape.org/) -->

<svg
   xmlns:dc="http://purl.org/dc/elements/1.1/"
   xmlns:cc="http://creativecommons.org/ns#"
   xmlns:rdf="http://www.w3.org/1999/02/22-rdf-syntax-ns#"
   xmlns:svg="http://www.w3.org/2000/svg"
   xmlns="http://www.w3.org/2000/svg"
   xmlns:sodipodi="http://sodipodi.sourceforge.net/DTD/sodipodi-0.dtd"
   xmlns:inkscape="http://www.inkscape.org/namespaces/inkscape"
   width="210mm"
   height="297mm"
   viewBox="0 0 744.09448819 1052.3622047"
   id="svg2"
   version="1.1"
   inkscape:version="0.91 r13725"
   sodipodi:docname="spqr_fig3.svg">
  <defs
     id="defs4" />
  <sodipodi:namedview
     id="base"
     pagecolor="#ffffff"
     bordercolor="#666666"
     borderopacity="1.0"
     inkscape:pageopacity="0.0"
     inkscape:pageshadow="2"
     inkscape:zoom="1.4"
     inkscape:cx="2.9720152"
     inkscape:cy="703.78884"
     inkscape:document-units="px"
     inkscape:current-layer="layer1"
     showgrid="false"
     showguides="false"
     inkscape:window-width="1350"
     inkscape:window-height="1387"
     inkscape:window-x="1051"
     inkscape:window-y="0"
     inkscape:window-maximized="0" />
  <metadata
     id="metadata7">
    <rdf:RDF>
      <cc:Work
         rdf:about="">
        <dc:format>image/svg+xml</dc:format>
        <dc:type
           rdf:resource="http://purl.org/dc/dcmitype/StillImage" />
        <dc:title></dc:title>
      </cc:Work>
    </rdf:RDF>
  </metadata>
  <g
     inkscape:label="Layer 1"
     inkscape:groupmode="layer"
     id="layer1">
    <circle
       style="fill:#000000;fill-opacity:0.00513623;stroke:#000000;stroke-opacity:1"
       id="path4138"
       cx="41.776268"
       cy="196.79819"
       r="2.5"
       transform="matrix(0.73245163,-0.68081907,0.68081907,0.73245163,0,0)" />
    <path
       inkscape:connector-curvature="0"
       id="path4234"
       d="m 208.01798,171.479 0.26605,4.03184 4.96978,-2.35265 z"
       style="fill:#000000;fill-opacity:1;fill-rule:evenodd;stroke:#000000;stroke-width:1px;stroke-linecap:butt;stroke-linejoin:miter;stroke-opacity:1" />
    <text
       sodipodi:linespacing="125%"
       id="text4265"
       y="178.80299"
       x="221.79826"
       style="font-style:normal;font-weight:normal;font-size:20px;line-height:125%;font-family:sans-serif;letter-spacing:0px;word-spacing:0px;fill:#000000;fill-opacity:1;stroke:none;stroke-width:1px;stroke-linecap:butt;stroke-linejoin:miter;stroke-opacity:1"
       xml:space="preserve"><tspan
         style="font-style:normal;font-variant:normal;font-weight:normal;font-stretch:normal;font-size:12.5px;font-family:'.Helvetica LT MM';-inkscape-font-specification:'.Helvetica LT MM'"
         y="178.80299"
         x="221.79826"
         id="tspan4267"
         sodipodi:role="line">root</tspan></text>
    <ellipse
       r="2.5"
       cy="175.94305"
       cx="251.39267"
       id="ellipse4339"
       style="fill:#000000;fill-opacity:0.00513623;stroke:#000000;stroke-opacity:1" />
    <g
       id="g4357"
       transform="matrix(-0.65692814,-0.75395319,0.75395319,-0.65692814,111.57137,278.8699)">
      <path
         style="fill:none;fill-rule:evenodd;stroke:#000000;stroke-width:1px;stroke-linecap:butt;stroke-linejoin:miter;stroke-opacity:1"
         d="m 91.008835,146.96565 13.163145,-0.39461"
         id="path4359"
         inkscape:connector-curvature="0"
         sodipodi:nodetypes="cc" />
      <path
         style="fill:#000000;fill-opacity:1;fill-rule:evenodd;stroke:#000000;stroke-width:1px;stroke-linecap:butt;stroke-linejoin:miter;stroke-opacity:1"
         d="m 104.67706,144.42447 0,4.04061 5.1139,-2.02031 z"
         id="path4361"
         inkscape:connector-curvature="0" />
    </g>
    <text
       xml:space="preserve"
       style="font-style:normal;font-weight:normal;font-size:20px;line-height:125%;font-family:sans-serif;letter-spacing:0px;word-spacing:0px;fill:#000000;fill-opacity:1;stroke:none;stroke-width:1px;stroke-linecap:butt;stroke-linejoin:miter;stroke-opacity:1"
       x="82.85714"
       y="22.362204"
       id="text4385"
       sodipodi:linespacing="125%"><tspan
         sodipodi:role="line"
         id="tspan4387"
         x="82.85714"
         y="22.362204" /></text>
    <text
       xml:space="preserve"
       style="font-style:normal;font-weight:normal;font-size:20px;line-height:125%;font-family:sans-serif;letter-spacing:0px;word-spacing:0px;fill:#000000;fill-opacity:1;stroke:none;stroke-width:1px;stroke-linecap:butt;stroke-linejoin:miter;stroke-opacity:1"
       x="203.04066"
       y="159.89243"
       id="text4684"
       sodipodi:linespacing="125%"><tspan
         sodipodi:role="line"
         id="tspan4686"
         x="203.04066"
         y="159.89243" /></text>
    <circle
       r="2.5"
       cy="170.78677"
       cx="41.776268"
       id="circle4870"
       style="fill:#000000;fill-opacity:0.00513623;stroke:#000000;stroke-opacity:1"
       transform="matrix(0.73245163,-0.68081907,0.68081907,0.73245163,0,0)" />
    <g
       transform="matrix(-0.65692814,-0.75395319,0.75395319,-0.65692814,93.862294,259.81779)"
       id="g4872">
      <path
         sodipodi:nodetypes="cc"
         inkscape:connector-curvature="0"
         id="path4874"
         d="m 91.008835,146.96565 13.163145,-0.39461"
         style="fill:none;fill-rule:evenodd;stroke:#000000;stroke-width:1px;stroke-linecap:butt;stroke-linejoin:miter;stroke-opacity:1" />
      <path
         inkscape:connector-curvature="0"
         id="path4876"
         d="m 104.67706,144.42447 0,4.04061 5.1139,-2.02031 z"
         style="fill:#000000;fill-opacity:1;fill-rule:evenodd;stroke:#000000;stroke-width:1px;stroke-linecap:butt;stroke-linejoin:miter;stroke-opacity:1" />
    </g>
    <circle
       style="fill:#000000;fill-opacity:0.00513623;stroke:#000000;stroke-opacity:1"
       id="circle4878"
       cx="41.776268"
       cy="144.77536"
       r="2.5"
       transform="matrix(0.73245163,-0.68081907,0.68081907,0.73245163,0,0)" />
    <g
       id="g4880"
       transform="matrix(-0.65692814,-0.75395319,0.75395319,-0.65692814,76.153224,240.76567)">
      <path
         style="fill:none;fill-rule:evenodd;stroke:#000000;stroke-width:1px;stroke-linecap:butt;stroke-linejoin:miter;stroke-opacity:1"
         d="m 91.008835,146.96565 13.163145,-0.39461"
         id="path4882"
         inkscape:connector-curvature="0"
         sodipodi:nodetypes="cc" />
      <path
         style="fill:#000000;fill-opacity:1;fill-rule:evenodd;stroke:#000000;stroke-width:1px;stroke-linecap:butt;stroke-linejoin:miter;stroke-opacity:1"
         d="m 104.67706,144.42447 0,4.04061 5.1139,-2.02031 z"
         id="path4884"
         inkscape:connector-curvature="0" />
    </g>
    <circle
       r="2.5"
       cy="274.83246"
       cx="41.776268"
       id="circle4886"
       style="fill:#000000;fill-opacity:0.00513623;stroke:#000000;stroke-opacity:1"
       transform="matrix(0.73245163,-0.68081907,0.68081907,0.73245163,0,0)" />
    <g
       transform="matrix(-0.65692814,-0.75395319,0.75395319,-0.65692814,164.6986,336.02624)"
       id="g4888">
      <path
         sodipodi:nodetypes="cc"
         inkscape:connector-curvature="0"
         id="path4890"
         d="m 91.008835,146.96565 13.163145,-0.39461"
         style="fill:none;fill-rule:evenodd;stroke:#000000;stroke-width:1px;stroke-linecap:butt;stroke-linejoin:miter;stroke-opacity:1" />
      <path
         inkscape:connector-curvature="0"
         id="path4892"
         d="m 104.67706,144.42447 0,4.04061 5.1139,-2.02031 z"
         style="fill:#000000;fill-opacity:1;fill-rule:evenodd;stroke:#000000;stroke-width:1px;stroke-linecap:butt;stroke-linejoin:miter;stroke-opacity:1" />
    </g>
    <circle
       style="fill:#000000;fill-opacity:0.00513623;stroke:#000000;stroke-opacity:1"
       id="circle4894"
       cx="41.776268"
       cy="248.82104"
       r="2.5"
       transform="matrix(0.73245163,-0.68081907,0.68081907,0.73245163,0,0)" />
    <g
       id="g4896"
       transform="matrix(-0.65692814,-0.75395319,0.75395319,-0.65692814,146.98952,316.97412)">
      <path
         style="fill:none;fill-rule:evenodd;stroke:#000000;stroke-width:1px;stroke-linecap:butt;stroke-linejoin:miter;stroke-opacity:1"
         d="m 91.008835,146.96565 13.163145,-0.39461"
         id="path4898"
         inkscape:connector-curvature="0"
         sodipodi:nodetypes="cc" />
      <path
         style="fill:#000000;fill-opacity:1;fill-rule:evenodd;stroke:#000000;stroke-width:1px;stroke-linecap:butt;stroke-linejoin:miter;stroke-opacity:1"
         d="m 104.67706,144.42447 0,4.04061 5.1139,-2.02031 z"
         id="path4900"
         inkscape:connector-curvature="0" />
    </g>
    <circle
       r="2.5"
       cy="222.80963"
       cx="41.776268"
       id="circle4902"
       style="fill:#000000;fill-opacity:0.00513623;stroke:#000000;stroke-opacity:1"
       transform="matrix(0.73245163,-0.68081907,0.68081907,0.73245163,0,0)" />
    <g
       transform="matrix(-0.65692814,-0.75395319,0.75395319,-0.65692814,129.28044,297.92201)"
       id="g4904">
      <path
         sodipodi:nodetypes="cc"
         inkscape:connector-curvature="0"
         id="path4906"
         d="m 91.008835,146.96565 13.163145,-0.39461"
         style="fill:none;fill-rule:evenodd;stroke:#000000;stroke-width:1px;stroke-linecap:butt;stroke-linejoin:miter;stroke-opacity:1" />
      <path
         inkscape:connector-curvature="0"
         id="path4908"
         d="m 104.67706,144.42447 0,4.04061 5.1139,-2.02031 z"
         style="fill:#000000;fill-opacity:1;fill-rule:evenodd;stroke:#000000;stroke-width:1px;stroke-linecap:butt;stroke-linejoin:miter;stroke-opacity:1" />
    </g>
    <circle
       style="fill:#000000;fill-opacity:0.00513623;stroke:#000000;stroke-opacity:1"
       id="circle4910"
       cx="41.776268"
       cy="118.76388"
       r="2.5"
       transform="matrix(0.73245163,-0.68081907,0.68081907,0.73245163,0,0)" />
    <g
       id="g4912"
       transform="matrix(-0.65692814,-0.75395319,0.75395319,-0.65692814,58.444144,221.71356)">
      <path
         style="fill:none;fill-rule:evenodd;stroke:#000000;stroke-width:1px;stroke-linecap:butt;stroke-linejoin:miter;stroke-opacity:1"
         d="m 91.008835,146.96565 13.163145,-0.39461"
         id="path4914"
         inkscape:connector-curvature="0"
         sodipodi:nodetypes="cc" />
      <path
         style="fill:#000000;fill-opacity:1;fill-rule:evenodd;stroke:#000000;stroke-width:1px;stroke-linecap:butt;stroke-linejoin:miter;stroke-opacity:1"
         d="m 104.67706,144.42447 0,4.04061 5.1139,-2.02031 z"
         id="path4916"
         inkscape:connector-curvature="0" />
    </g>
    <circle
       r="2.5"
       cy="92.752464"
       cx="41.776268"
       id="circle4918"
       style="fill:#000000;fill-opacity:0.00513623;stroke:#000000;stroke-opacity:1"
       transform="matrix(0.73245163,-0.68081907,0.68081907,0.73245163,0,0)" />
    <path
       style="fill:none;fill-rule:evenodd;stroke:#000000;stroke-width:1px;stroke-linecap:butt;stroke-linejoin:miter;stroke-opacity:1"
       d="m 92.929154,41.956278 c 0,0 -6.41159,18.25218 -7.57615,27.7792 -1.77768,14.54284 -2.37478,29.68694 1.01016,43.941642 2.99261,12.60252 8.34502,25.17731 16.667506,35.1028 7.36889,8.78822 17.37222,15.7187 28.03174,19.95051 12.00534,4.7661 25.49941,4.41733 38.38579,5.3033 9.57385,0.65823 19.19553,0.22473 28.78935,0 5.39192,-0.1263 16.16244,-0.75761 16.16244,-0.75761"
       id="path4920"
       inkscape:connector-curvature="0"
       sodipodi:nodetypes="cssssssc" />
    <path
       style="fill:none;fill-rule:evenodd;stroke:#000000;stroke-width:1px;stroke-linecap:butt;stroke-linejoin:miter;stroke-opacity:1"
       d="m 93.939304,41.703748 c 0,0 -4.04498,25.90199 -3.78807,38.63833 0.22366,11.08804 0.46721,18.12735 4.29314,28.536812 2.42447,6.5964 7.408416,14.35712 13.131976,18.43528 6.53595,4.657 14.55461,8.05578 22.4759,9.34392 11.65129,1.8947 22.31595,2.06994 34.09265,1.26269 4.79288,-0.32854 15.40483,-2.02031 15.40483,-2.02031"
       id="path4922"
       inkscape:connector-curvature="0"
       sodipodi:nodetypes="csssssc" />
    <path
       style="fill:#000000;fill-opacity:1;fill-rule:evenodd;stroke:#000000;stroke-width:1px;stroke-linecap:butt;stroke-linejoin:miter;stroke-opacity:1"
       d="m 173.79761,134.57902 0.59814,3.99608 4.75849,-2.75505 z"
       id="path4924"
       inkscape:connector-curvature="0"
       inkscape:transform-center-x="2.6359902"
       inkscape:transform-center-y="8.6905126" />
    <path
       style="fill:none;fill-rule:evenodd;stroke:#000000;stroke-width:1px;stroke-linecap:butt;stroke-linejoin:miter;stroke-opacity:1"
       d="m 145.89285,98.969348 c 0,0 -2.98559,9.408322 -3.39285,14.285712 -0.59567,7.13389 -1.33676,14.82553 1.42857,21.42857 2.21502,5.289 6.76811,9.5165 11.42857,12.85715 6.09208,4.36684 13.32215,7.50941 20.71428,8.75 7.00141,1.17501 21.25,-1.42858 21.25,-1.42858"
       id="path4926"
       inkscape:connector-curvature="0"
       sodipodi:nodetypes="cssssc" />
    <path
       inkscape:transform-center-y="8.6167426"
       inkscape:transform-center-x="2.7419402"
       inkscape:connector-curvature="0"
       id="path4928"
       d="m 191.66643,153.60794 0.54002,4.00434 4.79801,-2.68564 z"
       style="fill:#000000;fill-opacity:1;fill-rule:evenodd;stroke:#000000;stroke-width:1px;stroke-linecap:butt;stroke-linejoin:miter;stroke-opacity:1" />
    <path
       style="fill:none;fill-rule:evenodd;stroke:#000000;stroke-width:1px;stroke-linecap:butt;stroke-linejoin:miter;stroke-opacity:1"
       d="m 110,60.397918 c 0,0 -3.88536,17.34091 -3.21429,26.07143 0.56897,7.40219 2.40671,14.972102 6.07143,21.428572 2.86839,5.0535 7.10782,9.48791 11.96428,12.67857 7.14466,4.69399 15.82836,6.61895 24.10715,8.75 10.0363,2.58345 30.71428,4.82143 30.71428,4.82143"
       id="path4930"
       inkscape:connector-curvature="0"
       sodipodi:nodetypes="cssssc" />
    <path
       inkscape:transform-center-y="7.3438376"
       inkscape:transform-center-x="4.3662202"
       inkscape:connector-curvature="0"
       id="path4932"
       d="m 173.50308,131.25189 -0.31358,4.02841 5.25527,-1.61728 z"
       style="fill:#000000;fill-opacity:1;fill-rule:evenodd;stroke:#000000;stroke-width:1px;stroke-linecap:butt;stroke-linejoin:miter;stroke-opacity:1" />
    <path
       style="fill:none;fill-rule:evenodd;stroke:#000000;stroke-width:1px;stroke-linecap:butt;stroke-linejoin:miter;stroke-opacity:1"
       d="m 111.42857,60.755058 c 0,0 -2.20608,13.06914 -0.17857,19.10714 2.20196,6.5575 8.14526,11.81501 14.28571,15.00001 6.0822,3.15478 18.92857,2.32142 18.92857,2.32142"
       id="path4934"
       inkscape:connector-curvature="0"
       sodipodi:nodetypes="cssc" />
    <path
       style="fill:#000000;fill-opacity:1;fill-rule:evenodd;stroke:#000000;stroke-width:1px;stroke-linecap:butt;stroke-linejoin:miter;stroke-opacity:1"
       d="m 137.60392,95.069318 0.0657,4.04007 5.08038,-2.10313 z"
       id="path4936"
       inkscape:connector-curvature="0"
       inkscape:transform-center-x="3.5778252"
       inkscape:transform-center-y="7.9528176" />
    <text
       xml:space="preserve"
       style="font-style:normal;font-weight:normal;font-size:20px;line-height:125%;font-family:sans-serif;letter-spacing:0px;word-spacing:0px;fill:#000000;fill-opacity:1;stroke:none;stroke-width:1px;stroke-linecap:butt;stroke-linejoin:miter;stroke-opacity:1"
       x="127.69111"
       y="166.48158"
       id="text4938"
       sodipodi:linespacing="125%"><tspan
         sodipodi:role="line"
         id="tspan4940"
         x="127.69111"
         y="166.48158"
         style="font-style:normal;font-variant:normal;font-weight:normal;font-stretch:normal;font-size:12.5px;font-family:'.Helvetica LT MM';-inkscape-font-specification:'.Helvetica LT MM'">f1</tspan></text>
  </g>
</svg>
