<?xml version="1.0" encoding="UTF-8" standalone="no"?>
<!-- Created with Inkscape (http://www.inkscape.org/) -->

<svg
   xmlns:dc="http://purl.org/dc/elements/1.1/"
   xmlns:cc="http://creativecommons.org/ns#"
   xmlns:rdf="http://www.w3.org/1999/02/22-rdf-syntax-ns#"
   xmlns:svg="http://www.w3.org/2000/svg"
   xmlns="http://www.w3.org/2000/svg"
   xmlns:sodipodi="http://sodipodi.sourceforge.net/DTD/sodipodi-0.dtd"
   xmlns:inkscape="http://www.inkscape.org/namespaces/inkscape"
   width="210mm"
   height="297mm"
   viewBox="0 0 744.09448819 1052.3622047"
   id="svg2"
   version="1.1"
   inkscape:version="0.91 r13725"
   sodipodi:docname="spqr_fig16.svg">
  <defs
     id="defs4" />
  <sodipodi:namedview
     id="base"
     pagecolor="#ffffff"
     bordercolor="#666666"
     borderopacity="1.0"
     inkscape:pageopacity="0.0"
     inkscape:pageshadow="2"
     inkscape:zoom="3.2494215"
     inkscape:cx="154.89631"
     inkscape:cy="903.90978"
     inkscape:document-units="px"
     inkscape:current-layer="layer1"
     showgrid="false"
     showguides="false"
     inkscape:window-width="1875"
     inkscape:window-height="1374"
     inkscape:window-x="612"
     inkscape:window-y="0"
     inkscape:window-maximized="0" />
  <metadata
     id="metadata7">
    <rdf:RDF>
      <cc:Work
         rdf:about="">
        <dc:format>image/svg+xml</dc:format>
        <dc:type
           rdf:resource="http://purl.org/dc/dcmitype/StillImage" />
        <dc:title></dc:title>
      </cc:Work>
    </rdf:RDF>
  </metadata>
  <g
     inkscape:label="Layer 1"
     inkscape:groupmode="layer"
     id="layer1">
    <ellipse
       r="2.5"
       cy="175.94305"
       cx="251.39267"
       id="ellipse4339"
       style="fill:#000000;fill-opacity:0.00513623;stroke:#000000;stroke-opacity:1" />
    <text
       xml:space="preserve"
       style="font-style:normal;font-weight:normal;font-size:20px;line-height:125%;font-family:sans-serif;letter-spacing:0px;word-spacing:0px;fill:#000000;fill-opacity:1;stroke:none;stroke-width:1px;stroke-linecap:butt;stroke-linejoin:miter;stroke-opacity:1"
       x="82.85714"
       y="22.362204"
       id="text4385"
       sodipodi:linespacing="125%"><tspan
         sodipodi:role="line"
         id="tspan4387"
         x="82.85714"
         y="22.362204" /></text>
    <text
       xml:space="preserve"
       style="font-style:normal;font-weight:normal;font-size:20px;line-height:125%;font-family:sans-serif;letter-spacing:0px;word-spacing:0px;fill:#000000;fill-opacity:1;stroke:none;stroke-width:1px;stroke-linecap:butt;stroke-linejoin:miter;stroke-opacity:1"
       x="203.04066"
       y="159.89243"
       id="text4684"
       sodipodi:linespacing="125%"><tspan
         sodipodi:role="line"
         id="tspan4686"
         x="203.04066"
         y="159.89243" /></text>
    <g
       transform="matrix(-0.76269644,-0.64675663,0.64675663,-0.76269644,233.05993,398.84826)"
       id="g4888">
      <path
         sodipodi:nodetypes="cc"
         inkscape:connector-curvature="0"
         id="path4890"
         d="m 91.008835,146.96565 13.163145,-0.39461"
         style="fill:none;fill-rule:evenodd;stroke:#000000;stroke-width:1px;stroke-linecap:butt;stroke-linejoin:miter;stroke-opacity:1" />
      <path
         inkscape:connector-curvature="0"
         id="path4892"
         d="m 104.67706,144.42447 0,4.04061 5.1139,-2.02031 z"
         style="fill:#000000;fill-opacity:1;fill-rule:evenodd;stroke:#000000;stroke-width:1px;stroke-linecap:butt;stroke-linejoin:miter;stroke-opacity:1" />
    </g>
    <g
       transform="matrix(-0.02803999,-0.50968213,0.50968213,-0.02803999,162.55633,248.50918)"
       id="g4969">
      <path
         style="fill:none;fill-rule:evenodd;stroke:#000000;stroke-width:1px;stroke-linecap:butt;stroke-linejoin:miter;stroke-opacity:1"
         d="m 23.646671,187.41909 6.657905,0 0,4.54568 4.859501,0"
         id="path4971"
         inkscape:connector-curvature="0"
         sodipodi:nodetypes="cccc" />
      <path
         sodipodi:nodetypes="cccc"
         inkscape:connector-curvature="0"
         id="path4973"
         d="m 23.646671,189.38338 4.693619,0 0,4.54568 6.734501,0"
         style="fill:none;fill-rule:evenodd;stroke:#000000;stroke-width:1px;stroke-linecap:butt;stroke-linejoin:miter;stroke-opacity:1" />
    </g>
    <circle
       r="2.5"
       cy="162.35225"
       cx="-170.74983"
       id="circle5003"
       style="fill:#000000;fill-opacity:0.00513623;stroke:#000000;stroke-opacity:1"
       transform="matrix(-0.06882091,-0.99762903,0.99762903,-0.06882091,0,0)" />
    <path
       inkscape:connector-curvature="0"
       id="path5025"
       d="m 165.30021,162.81113 2.23754,3.3645 3.13944,-4.51414 z"
       style="fill:#000000;fill-opacity:1;fill-rule:evenodd;stroke:#000000;stroke-width:1px;stroke-linecap:butt;stroke-linejoin:miter;stroke-opacity:1" />
    <circle
       transform="matrix(-0.06882091,-0.99762903,0.99762903,-0.06882091,0,0)"
       style="fill:#000000;fill-opacity:0.00513623;stroke:#000000;stroke-opacity:1"
       id="circle5029"
       cx="-141.27036"
       cy="130.8253"
       r="2.5" />
    <g
       id="g5031"
       transform="matrix(-0.76269644,-0.64675663,0.64675663,-0.76269644,131.76299,316.9736)">
      <path
         style="fill:none;fill-rule:evenodd;stroke:#000000;stroke-width:1px;stroke-linecap:butt;stroke-linejoin:miter;stroke-opacity:1"
         d="m 91.008835,146.96565 13.163145,-0.39461"
         id="path5033"
         inkscape:connector-curvature="0"
         sodipodi:nodetypes="cc" />
      <path
         style="fill:#000000;fill-opacity:1;fill-rule:evenodd;stroke:#000000;stroke-width:1px;stroke-linecap:butt;stroke-linejoin:miter;stroke-opacity:1"
         d="m 104.67706,144.42447 0,4.04061 5.1139,-2.02031 z"
         id="path5035"
         inkscape:connector-curvature="0" />
    </g>
    <g
       id="g5037"
       transform="matrix(-0.02803999,-0.50968213,0.50968213,-0.02803999,61.259388,166.63453)">
      <path
         sodipodi:nodetypes="cccc"
         inkscape:connector-curvature="0"
         id="path5039"
         d="m 23.646671,187.41909 6.657905,0 0,4.54568 4.859501,0"
         style="fill:none;fill-rule:evenodd;stroke:#000000;stroke-width:1px;stroke-linecap:butt;stroke-linejoin:miter;stroke-opacity:1" />
      <path
         style="fill:none;fill-rule:evenodd;stroke:#000000;stroke-width:1px;stroke-linecap:butt;stroke-linejoin:miter;stroke-opacity:1"
         d="m 23.646671,189.38338 4.693619,0 0,4.54568 6.734501,0"
         id="path5041"
         inkscape:connector-curvature="0"
         sodipodi:nodetypes="cccc" />
    </g>
    <path
       inkscape:connector-curvature="0"
       id="path5043"
       d="m 158.24307,146.73693 13.59834,10.99657"
       style="fill:none;fill-rule:evenodd;stroke:#000000;stroke-width:1px;stroke-linecap:butt;stroke-linejoin:miter;stroke-opacity:1" />
    <circle
       r="2.5"
       cy="99.859718"
       cx="-112.40485"
       id="circle5045"
       style="fill:#000000;fill-opacity:0.00513623;stroke:#000000;stroke-opacity:1"
       transform="matrix(-0.06882091,-0.99762903,0.99762903,-0.06882091,0,0)" />
    <path
       style="fill:none;fill-rule:evenodd;stroke:#000000;stroke-width:1;stroke-linecap:butt;stroke-linejoin:miter;stroke-opacity:1;stroke-miterlimit:4;stroke-dasharray:none"
       d="m 125.33394,119.69527 -10.2947,-8.21238"
       id="path5051"
       inkscape:connector-curvature="0"
       sodipodi:nodetypes="cc" />
    <path
       style="fill:#000000;fill-opacity:1;fill-rule:evenodd;stroke:#000000;stroke-width:1px;stroke-linecap:butt;stroke-linejoin:miter;stroke-opacity:1"
       d="m 113.26571,112.79341 2.61329,-3.08176 -5.207,-1.76657 z"
       id="path5053"
       inkscape:connector-curvature="0" />
    <g
       transform="matrix(-0.02803999,-0.50968213,0.50968213,-0.02803999,29.19144,140.30694)"
       id="g5055">
      <path
         style="fill:none;fill-rule:evenodd;stroke:#000000;stroke-width:1px;stroke-linecap:butt;stroke-linejoin:miter;stroke-opacity:1"
         d="m 23.646671,187.41909 6.657905,0 0,4.54568 4.859501,0"
         id="path5057"
         inkscape:connector-curvature="0"
         sodipodi:nodetypes="cccc" />
      <path
         sodipodi:nodetypes="cccc"
         inkscape:connector-curvature="0"
         id="path5059"
         d="m 23.646671,189.38338 4.693619,0 0,4.54568 6.734501,0"
         style="fill:none;fill-rule:evenodd;stroke:#000000;stroke-width:1px;stroke-linecap:butt;stroke-linejoin:miter;stroke-opacity:1" />
    </g>
    <path
       sodipodi:nodetypes="cc"
       style="fill:none;fill-rule:evenodd;stroke:#000000;stroke-width:1;stroke-linecap:butt;stroke-linejoin:miter;stroke-opacity:1;stroke-miterlimit:4;stroke-dasharray:none"
       d="m 125.93627,120.35053 12.00819,9.89964"
       id="path5061"
       inkscape:connector-curvature="0" />
    <path
       style="fill:none;fill-rule:evenodd;stroke:#000000;stroke-width:1;stroke-linecap:butt;stroke-linejoin:miter;stroke-miterlimit:4;stroke-dasharray:none;stroke-opacity:1"
       d="M 105.64134,71.47623 95.346639,63.263846"
       id="path5167"
       inkscape:connector-curvature="0"
       sodipodi:nodetypes="cc" />
    <path
       style="fill:#000000;fill-opacity:1;fill-rule:evenodd;stroke:#000000;stroke-width:1px;stroke-linecap:butt;stroke-linejoin:miter;stroke-opacity:1"
       d="m 95.608659,66.070458 2.61329,-3.08176 -5.207,-1.76657 z"
       id="path5169"
       inkscape:connector-curvature="0" />
    <g
       transform="matrix(-0.02803999,-0.50968213,0.50968213,-0.02803999,-5.0810445,112.97847)"
       id="g5171">
      <path
         style="fill:none;fill-rule:evenodd;stroke:#000000;stroke-width:1px;stroke-linecap:butt;stroke-linejoin:miter;stroke-opacity:1"
         d="m 23.646671,187.41909 6.657905,0 0,4.54568 4.859501,0"
         id="path5173"
         inkscape:connector-curvature="0"
         sodipodi:nodetypes="cccc" />
      <path
         sodipodi:nodetypes="cccc"
         inkscape:connector-curvature="0"
         id="path5175"
         d="m 23.646671,189.38338 4.693619,0 0,4.54568 6.734501,0"
         style="fill:none;fill-rule:evenodd;stroke:#000000;stroke-width:1px;stroke-linecap:butt;stroke-linejoin:miter;stroke-opacity:1" />
    </g>
    <path
       style="fill:none;fill-rule:evenodd;stroke:#000000;stroke-width:1;stroke-linecap:butt;stroke-linejoin:miter;stroke-opacity:1;stroke-miterlimit:4;stroke-dasharray:none"
       d="M 91.902655,93.080865 105.50099,104.07744"
       id="path5177"
       inkscape:connector-curvature="0" />
    <circle
       transform="matrix(-0.06882091,-0.99762903,0.99762903,-0.06882091,0,0)"
       style="fill:#000000;fill-opacity:0.00513623;stroke:#000000;stroke-opacity:1"
       id="circle5179"
       cx="-44.193527"
       cy="63.042717"
       r="2.5" />
    <circle
       transform="matrix(-0.06882091,-0.99762903,0.99762903,-0.06882091,0,0)"
       style="fill:#000000;fill-opacity:0.00513623;stroke:#000000;stroke-opacity:1"
       id="circle5181"
       cx="-65.768326"
       cy="85.936218"
       r="2.5" />
    <g
       id="g5183"
       transform="matrix(-0.76269644,-0.64675663,0.64675663,-0.76269644,58.27096,225.1302)">
      <path
         style="fill:none;fill-rule:evenodd;stroke:#000000;stroke-width:1px;stroke-linecap:butt;stroke-linejoin:miter;stroke-opacity:1"
         d="m 91.008835,146.96565 13.163145,-0.39461"
         id="path5185"
         inkscape:connector-curvature="0"
         sodipodi:nodetypes="cc" />
      <path
         style="fill:#000000;fill-opacity:1;fill-rule:evenodd;stroke:#000000;stroke-width:1px;stroke-linecap:butt;stroke-linejoin:miter;stroke-opacity:1"
         d="m 104.67706,144.42447 0,4.04061 5.1139,-2.02031 z"
         id="path5187"
         inkscape:connector-curvature="0" />
    </g>
    <g
       id="g5189"
       transform="matrix(-0.02803999,-0.50968213,0.50968213,-0.02803999,-12.232641,74.791127)">
      <path
         sodipodi:nodetypes="cccc"
         inkscape:connector-curvature="0"
         id="path5191"
         d="m 23.646671,187.41909 6.657905,0 0,4.54568 4.859501,0"
         style="fill:none;fill-rule:evenodd;stroke:#000000;stroke-width:1px;stroke-linecap:butt;stroke-linejoin:miter;stroke-opacity:1" />
      <path
         style="fill:none;fill-rule:evenodd;stroke:#000000;stroke-width:1px;stroke-linecap:butt;stroke-linejoin:miter;stroke-opacity:1"
         d="m 23.646671,189.38338 4.693619,0 0,4.54568 6.734501,0"
         id="path5193"
         inkscape:connector-curvature="0"
         sodipodi:nodetypes="cccc" />
    </g>
    <path
       inkscape:connector-curvature="0"
       id="path5195"
       d="m 84.729805,54.834716 3.847811,3.044917"
       style="fill:none;fill-rule:evenodd;stroke:#000000;stroke-width:1px;stroke-linecap:butt;stroke-linejoin:miter;stroke-opacity:1"
       sodipodi:nodetypes="cc" />
    <circle
       r="2.5"
       cy="102.38824"
       cx="-80.724815"
       id="circle5217"
       style="fill:#000000;fill-opacity:0.00513623;stroke:#000000;stroke-opacity:1"
       transform="matrix(-0.06882091,-0.99762903,0.99762903,-0.06882091,0,0)" />
    <circle
       style="fill:none;fill-opacity:0.43312103;stroke:#000000;stroke-width:1;stroke-linecap:butt;stroke-linejoin:miter;stroke-miterlimit:4;stroke-dasharray:1, 1;stroke-dashoffset:0;stroke-opacity:1"
       id="path5775"
       cx="79.34951"
       cy="50.111607"
       r="5.2317004" />
    <g
       transform="matrix(0.0331743,-0.99944958,0.99944958,0.0331743,-42.08008,181.93192)"
       id="g5852">
      <path
         sodipodi:nodetypes="cc"
         inkscape:connector-curvature="0"
         id="path5854"
         d="m 84.250407,147.10277 19.921573,-0.53173"
         style="fill:none;fill-rule:evenodd;stroke:#000000;stroke-width:1px;stroke-linecap:butt;stroke-linejoin:miter;stroke-opacity:1" />
      <path
         inkscape:connector-curvature="0"
         id="path5856"
         d="m 104.67706,144.42447 0,4.04061 5.1139,-2.02031 z"
         style="fill:#000000;fill-opacity:1;fill-rule:evenodd;stroke:#000000;stroke-width:1px;stroke-linecap:butt;stroke-linejoin:miter;stroke-opacity:1" />
    </g>
    <text
       sodipodi:linespacing="125%"
       id="text5862"
       y="111.00504"
       x="93.999985"
       style="font-style:normal;font-weight:normal;font-size:20px;line-height:125%;font-family:sans-serif;letter-spacing:0px;word-spacing:0px;fill:#000000;fill-opacity:1;stroke:none;stroke-width:1px;stroke-linecap:butt;stroke-linejoin:miter;stroke-opacity:1"
       xml:space="preserve"><tspan
         style="font-style:normal;font-variant:normal;font-weight:normal;font-stretch:normal;font-size:12.5px;font-family:'.Helvetica LT MM';-inkscape-font-specification:'.Helvetica LT MM'"
         y="111.00504"
         x="93.999985"
         id="tspan5864"
         sodipodi:role="line">b</tspan></text>
    <path
       style="fill:none;fill-rule:evenodd;stroke:#000000;stroke-width:0.5;stroke-linecap:butt;stroke-linejoin:miter;stroke-opacity:1;stroke-miterlimit:4;stroke-dasharray:none"
       d="m 61.583644,44.718864 c 14.745161,12.052092 29.391271,23.538943 42.760376,34.273583 1.43367,1.151155 3.49949,1.570955 5.33145,1.414465 0.95404,-0.0815 1.84925,-0.617128 2.61132,-1.196855 0.717,-0.545443 1.30865,-1.276869 1.74088,-2.067296 0.52837,-0.966239 1.027,-1.402941 1.08805,-2.502515 0.0532,-0.958778 0.30148,-2.243643 0,-3.155346 -0.34122,-1.031888 -1.21045,-2.595551 -2.0673,-3.264151 C 97.395215,56.006608 84.047627,45.686855 69.635216,34.382386 68.443123,33.44736 66.689127,33.492275 65.17421,33.511946 c -1.003048,0.01302 -2.08116,0.130762 -2.937735,0.65283 -0.725639,0.442265 -1.247323,1.200787 -1.632076,1.958491 -0.40623,0.799998 -0.572899,1.717659 -0.65283,2.61132 -0.09715,1.08613 -0.07645,2.214082 0.21761,3.264151 0.275588,0.98411 0.623185,2.073366 1.414465,2.720126 z"
       id="path5876"
       inkscape:connector-curvature="0"
       sodipodi:nodetypes="sssssssssssssss" />
    <text
       xml:space="preserve"
       style="font-style:normal;font-weight:normal;font-size:20px;line-height:125%;font-family:sans-serif;letter-spacing:0px;word-spacing:0px;fill:#000000;fill-opacity:1;stroke:none;stroke-width:1px;stroke-linecap:butt;stroke-linejoin:miter;stroke-opacity:1"
       x="35.555363"
       y="66.474121"
       id="text5892"
       sodipodi:linespacing="125%"><tspan
         sodipodi:role="line"
         id="tspan5894"
         x="35.555363"
         y="66.474121"
         style="font-style:normal;font-variant:normal;font-weight:normal;font-stretch:normal;font-size:12.5px;font-family:'.Helvetica LT MM';-inkscape-font-specification:'.Helvetica LT MM'">highpt(v)</tspan></text>
    <circle
       r="2.5"
       cy="96.72226"
       cx="-46.080635"
       id="circle6087"
       style="fill:#000000;fill-opacity:0.00513623;stroke:#000000;stroke-opacity:1"
       transform="matrix(-0.06882091,-0.99762903,0.99762903,-0.06882091,0,0)" />
    <g
       transform="matrix(-0.76269644,-0.64675663,0.64675663,-0.76269644,92.000516,224.69498)"
       id="g6091">
      <path
         sodipodi:nodetypes="cc"
         inkscape:connector-curvature="0"
         id="path6093"
         d="m 91.008835,146.96565 13.163145,-0.39461"
         style="fill:none;fill-rule:evenodd;stroke:#000000;stroke-width:1px;stroke-linecap:butt;stroke-linejoin:miter;stroke-opacity:1" />
      <path
         inkscape:connector-curvature="0"
         id="path6095"
         d="m 104.67706,144.42447 0,4.04061 5.1139,-2.02031 z"
         style="fill:#000000;fill-opacity:1;fill-rule:evenodd;stroke:#000000;stroke-width:1px;stroke-linecap:butt;stroke-linejoin:miter;stroke-opacity:1" />
    </g>
    <g
       transform="matrix(-0.02803999,-0.50968213,0.50968213,-0.02803999,21.496917,74.355907)"
       id="g6097">
      <path
         style="fill:none;fill-rule:evenodd;stroke:#000000;stroke-width:1px;stroke-linecap:butt;stroke-linejoin:miter;stroke-opacity:1"
         d="m 23.646671,187.41909 6.657905,0 0,4.54568 4.859501,0"
         id="path6099"
         inkscape:connector-curvature="0"
         sodipodi:nodetypes="cccc" />
      <path
         sodipodi:nodetypes="cccc"
         inkscape:connector-curvature="0"
         id="path6101"
         d="m 23.646671,189.38338 4.693619,0 0,4.54568 6.734501,0"
         style="fill:none;fill-rule:evenodd;stroke:#000000;stroke-width:1px;stroke-linecap:butt;stroke-linejoin:miter;stroke-opacity:1" />
    </g>
    <path
       sodipodi:nodetypes="cc"
       style="fill:none;fill-rule:evenodd;stroke:#000000;stroke-width:1px;stroke-linecap:butt;stroke-linejoin:miter;stroke-opacity:1"
       d="m 118.67698,54.617102 21.25661,17.189575"
       id="path6103"
       inkscape:connector-curvature="0" />
    <circle
       transform="matrix(-0.06882091,-0.99762903,0.99762903,-0.06882091,0,0)"
       style="fill:#000000;fill-opacity:0.00513623;stroke:#000000;stroke-opacity:1"
       id="circle6105"
       cx="-82.611931"
       cy="136.06778"
       r="2.5" />
    <circle
       r="5.2317004"
       cy="58.816006"
       cx="125.48284"
       id="circle6107"
       style="fill:none;fill-opacity:0.43312103;stroke:#000000;stroke-width:1;stroke-linecap:butt;stroke-linejoin:miter;stroke-miterlimit:4;stroke-dasharray:1, 1;stroke-dashoffset:0;stroke-opacity:1" />
    <path
       sodipodi:nodetypes="sssssssssssssss"
       inkscape:connector-curvature="0"
       id="path6113"
       d="m 95.313206,44.283644 c 14.745164,12.052092 29.391274,23.538943 42.760374,34.273583 1.43367,1.151155 3.49949,1.570955 5.33145,1.414465 0.95404,-0.0815 1.84925,-0.617128 2.61132,-1.196855 0.717,-0.545443 1.30865,-1.276869 1.74088,-2.067296 0.52837,-0.966239 1.027,-1.402941 1.08805,-2.502515 0.0532,-0.958778 0.30148,-2.243643 0,-3.155346 -0.34122,-1.031888 -1.21045,-2.595551 -2.0673,-3.264151 -15.6532,-12.214141 -29.00079,-22.533894 -43.4132,-33.838363 -1.19209,-0.935026 -2.94609,-0.890111 -4.461014,-0.87044 -1.00305,0.01302 -2.08116,0.130762 -2.93773,0.65283 -0.72564,0.442265 -1.24733,1.200787 -1.63208,1.958491 -0.40623,0.799998 -0.5729,1.717659 -0.65283,2.61132 -0.0971,1.08613 -0.0764,2.214082 0.21761,3.264151 0.27559,0.98411 0.62319,2.073366 1.41447,2.720126 z"
       style="fill:none;fill-rule:evenodd;stroke:#000000;stroke-width:0.5;stroke-linecap:butt;stroke-linejoin:miter;stroke-miterlimit:4;stroke-dasharray:none;stroke-opacity:1" />
    <circle
       transform="matrix(-0.06882091,-0.99762903,0.99762903,-0.06882091,0,0)"
       style="fill:#000000;fill-opacity:0.00513623;stroke:#000000;stroke-opacity:1"
       id="circle6117"
       cx="-48.244743"
       cy="131.2552"
       r="2.5" />
    <g
       id="g6119"
       transform="matrix(-0.76269644,-0.64675663,0.64675663,-0.76269644,126.60051,224.47737)">
      <path
         style="fill:none;fill-rule:evenodd;stroke:#000000;stroke-width:1px;stroke-linecap:butt;stroke-linejoin:miter;stroke-opacity:1"
         d="m 91.008835,146.96565 13.163145,-0.39461"
         id="path6121"
         inkscape:connector-curvature="0"
         sodipodi:nodetypes="cc" />
      <path
         style="fill:#000000;fill-opacity:1;fill-rule:evenodd;stroke:#000000;stroke-width:1px;stroke-linecap:butt;stroke-linejoin:miter;stroke-opacity:1"
         d="m 104.67706,144.42447 0,4.04061 5.1139,-2.02031 z"
         id="path6123"
         inkscape:connector-curvature="0" />
    </g>
    <g
       id="g6125"
       transform="matrix(-0.02803999,-0.50968213,0.50968213,-0.02803999,56.096916,74.138297)">
      <path
         sodipodi:nodetypes="cccc"
         inkscape:connector-curvature="0"
         id="path6127"
         d="m 23.646671,187.41909 6.657905,0 0,4.54568 4.859501,0"
         style="fill:none;fill-rule:evenodd;stroke:#000000;stroke-width:1px;stroke-linecap:butt;stroke-linejoin:miter;stroke-opacity:1" />
      <path
         style="fill:none;fill-rule:evenodd;stroke:#000000;stroke-width:1px;stroke-linecap:butt;stroke-linejoin:miter;stroke-opacity:1"
         d="m 23.646671,189.38338 4.693619,0 0,4.54568 6.734501,0"
         id="path6129"
         inkscape:connector-curvature="0"
         sodipodi:nodetypes="cccc" />
    </g>
    <path
       inkscape:connector-curvature="0"
       id="path6131"
       d="m 153.27698,54.399492 21.25661,17.189575"
       style="fill:none;fill-rule:evenodd;stroke:#000000;stroke-width:1px;stroke-linecap:butt;stroke-linejoin:miter;stroke-opacity:1"
       sodipodi:nodetypes="cc" />
    <circle
       r="2.5"
       cy="170.60072"
       cx="-84.776039"
       id="circle6133"
       style="fill:#000000;fill-opacity:0.00513623;stroke:#000000;stroke-opacity:1"
       transform="matrix(-0.06882091,-0.99762903,0.99762903,-0.06882091,0,0)" />
    <circle
       style="fill:none;fill-opacity:0.43312103;stroke:#000000;stroke-width:1;stroke-linecap:butt;stroke-linejoin:miter;stroke-miterlimit:4;stroke-dasharray:1, 1;stroke-dashoffset:0;stroke-opacity:1"
       id="circle6135"
       cx="160.08282"
       cy="58.598396"
       r="5.2317004" />
    <path
       style="fill:none;fill-rule:evenodd;stroke:#000000;stroke-width:0.5;stroke-linecap:butt;stroke-linejoin:miter;stroke-miterlimit:4;stroke-dasharray:none;stroke-opacity:1"
       d="m 129.9132,44.066034 c 14.74517,12.052092 29.39128,23.538943 42.76038,34.273583 1.43367,1.151155 3.49949,1.570955 5.33145,1.414465 0.95404,-0.0815 1.84925,-0.617128 2.61132,-1.196855 0.717,-0.545443 1.30865,-1.276869 1.74088,-2.067296 0.52837,-0.966239 1.027,-1.402941 1.08805,-2.502515 0.0532,-0.958778 0.30148,-2.243643 0,-3.155346 -0.34122,-1.031888 -1.21045,-2.595551 -2.0673,-3.264151 -15.6532,-12.214141 -29.00079,-22.533894 -43.4132,-33.838363 -1.19209,-0.935026 -2.94609,-0.890111 -4.46102,-0.87044 -1.00305,0.01302 -2.08116,0.130762 -2.93773,0.65283 -0.72564,0.442265 -1.24733,1.200787 -1.63208,1.958491 -0.40623,0.799998 -0.5729,1.717659 -0.65283,2.61132 -0.0971,1.08613 -0.0764,2.214082 0.21761,3.264151 0.27559,0.98411 0.62319,2.073366 1.41447,2.720126 z"
       id="path6141"
       inkscape:connector-curvature="0"
       sodipodi:nodetypes="sssssssssssssss" />
    <g
       id="g6143"
       transform="matrix(0.71716189,-0.6969066,0.6969066,0.71716189,-41.900346,47.056186)"
       inkscape:transform-center-x="9.6662446"
       inkscape:transform-center-y="9.6568339">
      <path
         style="fill:none;fill-rule:evenodd;stroke:#000000;stroke-width:1px;stroke-linecap:butt;stroke-linejoin:miter;stroke-opacity:1"
         d="m 68.998654,145.93624 35.173326,0.6348"
         id="path6145"
         inkscape:connector-curvature="0"
         sodipodi:nodetypes="cc" />
      <path
         style="fill:#000000;fill-opacity:1;fill-rule:evenodd;stroke:#000000;stroke-width:1px;stroke-linecap:butt;stroke-linejoin:miter;stroke-opacity:1"
         d="m 104.67706,144.42447 0,4.04061 5.1139,-2.02031 z"
         id="path6147"
         inkscape:connector-curvature="0" />
    </g>
    <g
       inkscape:transform-center-y="10.334149"
       inkscape:transform-center-x="21.12083"
       transform="matrix(0.898661,-0.43864381,0.43864381,0.898661,9.9105408,-8.9973197)"
       id="g6149">
      <path
         sodipodi:nodetypes="cc"
         inkscape:connector-curvature="0"
         id="path6151"
         d="m 40.236219,145.54131 63.935761,1.02973"
         style="fill:none;fill-rule:evenodd;stroke:#000000;stroke-width:1px;stroke-linecap:butt;stroke-linejoin:miter;stroke-opacity:1" />
      <path
         inkscape:connector-curvature="0"
         id="path6153"
         d="m 104.67706,144.42447 0,4.04061 5.1139,-2.02031 z"
         style="fill:#000000;fill-opacity:1;fill-rule:evenodd;stroke:#000000;stroke-width:1px;stroke-linecap:butt;stroke-linejoin:miter;stroke-opacity:1" />
    </g>
    <circle
       transform="matrix(-0.06882091,-0.99762903,0.99762903,-0.06882091,0,0)"
       style="fill:#000000;fill-opacity:0.00513623;stroke:#000000;stroke-opacity:1"
       id="circle6155"
       cx="-200.22287"
       cy="194.34691"
       r="2.5" />
    <g
       transform="matrix(-0.76269644,-0.64675663,0.64675663,-0.76269644,165.71016,344.17486)"
       id="g6157">
      <path
         sodipodi:nodetypes="cc"
         inkscape:connector-curvature="0"
         id="path6159"
         d="m 91.008835,146.96565 13.163145,-0.39461"
         style="fill:none;fill-rule:evenodd;stroke:#000000;stroke-width:1px;stroke-linecap:butt;stroke-linejoin:miter;stroke-opacity:1" />
      <path
         inkscape:connector-curvature="0"
         id="path6161"
         d="m 104.67706,144.42447 0,4.04061 5.1139,-2.02031 z"
         style="fill:#000000;fill-opacity:1;fill-rule:evenodd;stroke:#000000;stroke-width:1px;stroke-linecap:butt;stroke-linejoin:miter;stroke-opacity:1" />
    </g>
    <g
       transform="matrix(-0.02803999,-0.50968213,0.50968213,-0.02803999,95.206556,193.83579)"
       id="g6163">
      <path
         style="fill:none;fill-rule:evenodd;stroke:#000000;stroke-width:1px;stroke-linecap:butt;stroke-linejoin:miter;stroke-opacity:1"
         d="m 23.646671,187.41909 6.657905,0 0,4.54568 4.859501,0"
         id="path6165"
         inkscape:connector-curvature="0"
         sodipodi:nodetypes="cccc" />
      <path
         sodipodi:nodetypes="cccc"
         inkscape:connector-curvature="0"
         id="path6167"
         d="m 23.646671,189.38338 4.693619,0 0,4.54568 6.734501,0"
         style="fill:none;fill-rule:evenodd;stroke:#000000;stroke-width:1px;stroke-linecap:butt;stroke-linejoin:miter;stroke-opacity:1" />
    </g>
    <path
       style="fill:none;fill-rule:evenodd;stroke:#000000;stroke-width:1px;stroke-linecap:butt;stroke-linejoin:miter;stroke-opacity:1"
       d="m 192.19024,173.93819 13.59834,10.99657"
       id="path6169"
       inkscape:connector-curvature="0" />
    <circle
       r="2.5"
       cy="225.90738"
       cx="-229.66595"
       id="circle6171"
       style="fill:#000000;fill-opacity:0.00513623;stroke:#000000;stroke-opacity:1"
       transform="matrix(-0.06882091,-0.99762903,0.99762903,-0.06882091,0,0)" />
    <g
       id="g6173"
       transform="matrix(-0.76269644,-0.64675663,0.64675663,-0.76269644,199.22211,371.37612)">
      <path
         style="fill:none;fill-rule:evenodd;stroke:#000000;stroke-width:1px;stroke-linecap:butt;stroke-linejoin:miter;stroke-opacity:1"
         d="m 91.008835,146.96565 13.163145,-0.39461"
         id="path6175"
         inkscape:connector-curvature="0"
         sodipodi:nodetypes="cc" />
      <path
         style="fill:#000000;fill-opacity:1;fill-rule:evenodd;stroke:#000000;stroke-width:1px;stroke-linecap:butt;stroke-linejoin:miter;stroke-opacity:1"
         d="m 104.67706,144.42447 0,4.04061 5.1139,-2.02031 z"
         id="path6177"
         inkscape:connector-curvature="0" />
    </g>
    <g
       id="g6179"
       transform="matrix(-0.02803999,-0.50968213,0.50968213,-0.02803999,128.7185,221.03705)">
      <path
         sodipodi:nodetypes="cccc"
         inkscape:connector-curvature="0"
         id="path6181"
         d="m 23.646671,187.41909 6.657905,0 0,4.54568 4.859501,0"
         style="fill:none;fill-rule:evenodd;stroke:#000000;stroke-width:1px;stroke-linecap:butt;stroke-linejoin:miter;stroke-opacity:1" />
      <path
         style="fill:none;fill-rule:evenodd;stroke:#000000;stroke-width:1px;stroke-linecap:butt;stroke-linejoin:miter;stroke-opacity:1"
         d="m 23.646671,189.38338 4.693619,0 0,4.54568 6.734501,0"
         id="path6183"
         inkscape:connector-curvature="0"
         sodipodi:nodetypes="cccc" />
    </g>
    <path
       inkscape:connector-curvature="0"
       id="path6185"
       d="m 225.70219,201.13945 13.59834,10.99657"
       style="fill:none;fill-rule:evenodd;stroke:#000000;stroke-width:1px;stroke-linecap:butt;stroke-linejoin:miter;stroke-opacity:1" />
    <text
       xml:space="preserve"
       style="font-style:normal;font-weight:normal;font-size:20px;line-height:125%;font-family:sans-serif;letter-spacing:0px;word-spacing:0px;fill:#000000;fill-opacity:1;stroke:none;stroke-width:1px;stroke-linecap:butt;stroke-linejoin:miter;stroke-opacity:1"
       x="145.65134"
       y="132.43066"
       id="text6187"
       sodipodi:linespacing="125%"><tspan
         sodipodi:role="line"
         id="tspan6189"
         x="145.65134"
         y="132.43066"
         style="font-style:normal;font-variant:normal;font-weight:normal;font-stretch:normal;font-size:12.5px;font-family:'.Helvetica LT MM';-inkscape-font-specification:'.Helvetica LT MM'">v</tspan></text>
    <g
       id="g6195"
       transform="translate(37.852891,-93.862861)">
      <text
         sodipodi:linespacing="125%"
         id="text5866"
         y="124.29134"
         x="23.61236"
         style="font-style:normal;font-weight:normal;font-size:20px;line-height:125%;font-family:sans-serif;letter-spacing:0px;word-spacing:0px;fill:#000000;fill-opacity:1;stroke:none;stroke-width:1px;stroke-linecap:butt;stroke-linejoin:miter;stroke-opacity:1"
         xml:space="preserve"><tspan
           style="font-style:normal;font-variant:normal;font-weight:normal;font-stretch:normal;font-size:12.5px;font-family:'.Helvetica LT MM';-inkscape-font-specification:'.Helvetica LT MM'"
           y="124.29134"
           x="23.61236"
           id="tspan5868"
           sodipodi:role="line">h</tspan></text>
      <text
         sodipodi:linespacing="125%"
         id="text6191"
         y="126.35123"
         x="30.77471"
         style="font-style:normal;font-weight:normal;font-size:20px;line-height:125%;font-family:sans-serif;letter-spacing:0px;word-spacing:0px;fill:#000000;fill-opacity:1;stroke:none;stroke-width:1px;stroke-linecap:butt;stroke-linejoin:miter;stroke-opacity:1"
         xml:space="preserve"><tspan
           style="font-style:normal;font-variant:normal;font-weight:normal;font-stretch:normal;font-size:7.5px;font-family:'.Helvetica LT MM';-inkscape-font-specification:'.Helvetica LT MM'"
           y="126.35123"
           x="30.77471"
           id="tspan6193"
           sodipodi:role="line">1</tspan></text>
    </g>
    <g
       id="g6201"
       transform="translate(69.858588,-95.093849)">
      <text
         xml:space="preserve"
         style="font-style:normal;font-weight:normal;font-size:20px;line-height:125%;font-family:sans-serif;letter-spacing:0px;word-spacing:0px;fill:#000000;fill-opacity:1;stroke:none;stroke-width:1px;stroke-linecap:butt;stroke-linejoin:miter;stroke-opacity:1"
         x="23.61236"
         y="124.29134"
         id="text6203"
         sodipodi:linespacing="125%"><tspan
           sodipodi:role="line"
           id="tspan6205"
           x="23.61236"
           y="124.29134"
           style="font-style:normal;font-variant:normal;font-weight:normal;font-stretch:normal;font-size:12.5px;font-family:'.Helvetica LT MM';-inkscape-font-specification:'.Helvetica LT MM'">h</tspan></text>
      <text
         xml:space="preserve"
         style="font-style:normal;font-weight:normal;font-size:20px;line-height:125%;font-family:sans-serif;letter-spacing:0px;word-spacing:0px;fill:#000000;fill-opacity:1;stroke:none;stroke-width:1px;stroke-linecap:butt;stroke-linejoin:miter;stroke-opacity:1"
         x="30.77471"
         y="126.35123"
         id="text6207"
         sodipodi:linespacing="125%"><tspan
           sodipodi:role="line"
           id="tspan6209"
           x="30.77471"
           y="126.35123"
           style="font-style:normal;font-variant:normal;font-weight:normal;font-stretch:normal;font-size:7.5px;font-family:'.Helvetica LT MM';-inkscape-font-specification:'.Helvetica LT MM'">2</tspan></text>
    </g>
    <g
       transform="translate(104.01851,-95.709343)"
       id="g6211">
      <text
         sodipodi:linespacing="125%"
         id="text6213"
         y="124.29134"
         x="23.61236"
         style="font-style:normal;font-weight:normal;font-size:20px;line-height:125%;font-family:sans-serif;letter-spacing:0px;word-spacing:0px;fill:#000000;fill-opacity:1;stroke:none;stroke-width:1px;stroke-linecap:butt;stroke-linejoin:miter;stroke-opacity:1"
         xml:space="preserve"><tspan
           style="font-style:normal;font-variant:normal;font-weight:normal;font-stretch:normal;font-size:12.5px;font-family:'.Helvetica LT MM';-inkscape-font-specification:'.Helvetica LT MM'"
           y="124.29134"
           x="23.61236"
           id="tspan6215"
           sodipodi:role="line">h</tspan></text>
      <text
         sodipodi:linespacing="125%"
         id="text6217"
         y="126.35123"
         x="30.77471"
         style="font-style:normal;font-weight:normal;font-size:20px;line-height:125%;font-family:sans-serif;letter-spacing:0px;word-spacing:0px;fill:#000000;fill-opacity:1;stroke:none;stroke-width:1px;stroke-linecap:butt;stroke-linejoin:miter;stroke-opacity:1"
         xml:space="preserve"><tspan
           style="font-style:normal;font-variant:normal;font-weight:normal;font-stretch:normal;font-size:7.5px;font-family:'.Helvetica LT MM';-inkscape-font-specification:'.Helvetica LT MM'"
           y="126.35123"
           x="30.77471"
           id="tspan6219"
           sodipodi:role="line">3</tspan></text>
    </g>
    <g
       transform="translate(222.50114,88.631161)"
       id="g6221">
      <text
         xml:space="preserve"
         style="font-style:normal;font-weight:normal;font-size:20px;line-height:125%;font-family:sans-serif;letter-spacing:0px;word-spacing:0px;fill:#000000;fill-opacity:1;stroke:none;stroke-width:1px;stroke-linecap:butt;stroke-linejoin:miter;stroke-opacity:1"
         x="23.61236"
         y="124.29134"
         id="text6223"
         sodipodi:linespacing="125%"><tspan
           sodipodi:role="line"
           id="tspan6225"
           x="23.61236"
           y="124.29134"
           style="font-style:normal;font-variant:normal;font-weight:normal;font-stretch:normal;font-size:12.5px;font-family:'.Helvetica LT MM';-inkscape-font-specification:'.Helvetica LT MM'">a</tspan></text>
      <text
         xml:space="preserve"
         style="font-style:normal;font-weight:normal;font-size:20px;line-height:125%;font-family:sans-serif;letter-spacing:0px;word-spacing:0px;fill:#000000;fill-opacity:1;stroke:none;stroke-width:1px;stroke-linecap:butt;stroke-linejoin:miter;stroke-opacity:1"
         x="30.77471"
         y="126.35123"
         id="text6227"
         sodipodi:linespacing="125%"><tspan
           sodipodi:role="line"
           id="tspan6229"
           x="30.77471"
           y="126.35123"
           style="font-style:normal;font-variant:normal;font-weight:normal;font-stretch:normal;font-size:7.5px;font-family:'.Helvetica LT MM';-inkscape-font-specification:'.Helvetica LT MM'">1</tspan></text>
    </g>
    <g
       transform="translate(188.03347,61.24167)"
       id="g6231">
      <text
         sodipodi:linespacing="125%"
         id="text6233"
         y="124.29134"
         x="23.61236"
         style="font-style:normal;font-weight:normal;font-size:20px;line-height:125%;font-family:sans-serif;letter-spacing:0px;word-spacing:0px;fill:#000000;fill-opacity:1;stroke:none;stroke-width:1px;stroke-linecap:butt;stroke-linejoin:miter;stroke-opacity:1"
         xml:space="preserve"><tspan
           style="font-style:normal;font-variant:normal;font-weight:normal;font-stretch:normal;font-size:12.5px;font-family:'.Helvetica LT MM';-inkscape-font-specification:'.Helvetica LT MM'"
           y="124.29134"
           x="23.61236"
           id="tspan6235"
           sodipodi:role="line">a</tspan></text>
      <text
         sodipodi:linespacing="125%"
         id="text6237"
         y="126.35123"
         x="30.77471"
         style="font-style:normal;font-weight:normal;font-size:20px;line-height:125%;font-family:sans-serif;letter-spacing:0px;word-spacing:0px;fill:#000000;fill-opacity:1;stroke:none;stroke-width:1px;stroke-linecap:butt;stroke-linejoin:miter;stroke-opacity:1"
         xml:space="preserve"><tspan
           style="font-style:normal;font-variant:normal;font-weight:normal;font-stretch:normal;font-size:7.5px;font-family:'.Helvetica LT MM';-inkscape-font-specification:'.Helvetica LT MM'"
           y="126.35123"
           x="30.77471"
           id="tspan6239"
           sodipodi:role="line">2</tspan></text>
    </g>
    <g
       id="g6241"
       transform="translate(154.48903,32.621192)">
      <text
         xml:space="preserve"
         style="font-style:normal;font-weight:normal;font-size:20px;line-height:125%;font-family:sans-serif;letter-spacing:0px;word-spacing:0px;fill:#000000;fill-opacity:1;stroke:none;stroke-width:1px;stroke-linecap:butt;stroke-linejoin:miter;stroke-opacity:1"
         x="23.61236"
         y="124.29134"
         id="text6243"
         sodipodi:linespacing="125%"><tspan
           sodipodi:role="line"
           id="tspan6245"
           x="23.61236"
           y="124.29134"
           style="font-style:normal;font-variant:normal;font-weight:normal;font-stretch:normal;font-size:12.5px;font-family:'.Helvetica LT MM';-inkscape-font-specification:'.Helvetica LT MM'">a</tspan></text>
      <text
         xml:space="preserve"
         style="font-style:normal;font-weight:normal;font-size:20px;line-height:125%;font-family:sans-serif;letter-spacing:0px;word-spacing:0px;fill:#000000;fill-opacity:1;stroke:none;stroke-width:1px;stroke-linecap:butt;stroke-linejoin:miter;stroke-opacity:1"
         x="30.77471"
         y="126.35123"
         id="text6247"
         sodipodi:linespacing="125%"><tspan
           sodipodi:role="line"
           id="tspan6249"
           x="30.77471"
           y="126.35123"
           style="font-style:normal;font-variant:normal;font-weight:normal;font-stretch:normal;font-size:7.5px;font-family:'.Helvetica LT MM';-inkscape-font-specification:'.Helvetica LT MM'">3</tspan></text>
    </g>
    <path
       style="fill:none;fill-rule:evenodd;stroke:#000000;stroke-width:1px;stroke-linecap:butt;stroke-linejoin:miter;stroke-opacity:1"
       d="m 156.64327,62.032085 c 0,0 -5.601,11.787036 -8.00143,17.849331 -4.39513,11.099921 -8.73239,22.287064 -11.69439,33.852184 -2.27203,8.87112 -4.96477,17.93093 -4.6162,27.08174 0.17709,4.64916 0.74608,9.70928 3.38521,13.54087 3.76122,5.46067 9.95766,9.48774 16.3106,11.38664 3.44141,1.02864 7.28753,0.56734 10.77115,-0.30774 3.11457,-0.78237 8.61692,-4.30846 8.61692,-4.30846"
       id="path6251"
       inkscape:connector-curvature="0"
       sodipodi:nodetypes="cssssssc" />
    <path
       style="fill:none;fill-rule:evenodd;stroke:#000000;stroke-width:1px;stroke-linecap:butt;stroke-linejoin:miter;stroke-opacity:1"
       d="m 120.33836,60.713203 c 0,0 -9.13128,1.092207 -13.0566,3.264151 -4.57856,2.533389 -8.011369,6.823109 -11.315728,10.880502 -2.922956,3.589072 -5.778246,7.415149 -7.398741,11.750943 -2.492568,6.669112 -3.334108,13.988831 -3.264151,21.108171 0.103467,10.52956 1.290498,21.44033 5.440251,31.11824 5.334201,12.44024 14.304659,23.35768 24.154719,32.64151 8.69671,8.19678 19.03209,14.90922 30.03018,19.5849 6.84974,2.91207 14.36992,4.127 21.76101,5.00503 6.91527,0.82151 14.08223,1.68135 20.89056,0.21761 6.4092,-1.37793 17.84403,-8.26918 17.84403,-8.26918"
       id="path6253"
       inkscape:connector-curvature="0"
       sodipodi:nodetypes="csssssssssc" />
    <path
       style="fill:#000000;fill-opacity:1;fill-rule:evenodd;stroke:#000000;stroke-width:1px;stroke-linecap:butt;stroke-linejoin:miter;stroke-opacity:1"
       d="m 198.79748,189.28882 1.97109,3.52723 3.4786,-4.2583 z"
       id="path6255"
       inkscape:connector-curvature="0"
       inkscape:transform-center-x="3.9100642"
       inkscape:transform-center-y="2.7309506" />
    <path
       style="fill:none;fill-rule:evenodd;stroke:#000000;stroke-width:1px;stroke-linecap:butt;stroke-linejoin:miter;stroke-opacity:1"
       d="m 76.163518,54.402512 c 0,0 -8.795831,13.532982 -11.315723,21.108175 -3.519779,10.581012 -4.968271,21.9257 -5.005031,33.076723 -0.04011,12.16622 4.569811,35.25283 5.222641,36.12327 0.65283,0.87044 10.015157,19.09417 17.191194,26.98365 10.085344,11.08803 22.854191,19.54397 35.470441,27.63648 14.44598,9.26616 29.22114,18.91766 45.69811,23.71949 11.04618,3.21915 22.89834,3.75207 34.38239,3.04654 6.21968,-0.38211 12.27248,-2.2589 18.27924,-3.91698 7.60638,-2.09963 22.41384,-7.61635 22.41384,-7.61635"
       id="path6257"
       inkscape:connector-curvature="0"
       sodipodi:nodetypes="cssssssssc" />
    <path
       style="fill:none;fill-rule:evenodd;stroke:#000000;stroke-width:1px;stroke-linecap:butt;stroke-linejoin:miter;stroke-opacity:1"
       d="m 89.220121,61.583643 c 0,0 -8.512378,15.299326 -10.445283,23.719496 -2.224875,9.692054 -3.354814,20.130241 -1.08805,29.812581 0.902619,3.85548 3.247573,7.30363 5.657861,10.44528 3.466788,4.51873 7.316326,9.19058 12.403773,11.75094 7.105198,3.57584 15.549778,3.94914 23.501888,4.13459 2.85131,0.0665 5.80089,-0.12871 8.48679,-1.08805 3.86662,-1.38107 10.44528,-6.5283 10.44528,-6.5283"
       id="path6259"
       inkscape:connector-curvature="0"
       sodipodi:nodetypes="cssssssc" />
    <path
       style="fill:#000000;fill-opacity:1;fill-rule:evenodd;stroke:#000000;stroke-width:1px;stroke-linecap:butt;stroke-linejoin:miter;stroke-opacity:1"
       d="m 132.05931,135.05258 2.08874,3.45885 3.33325,-4.37299 z"
       id="path6261"
       inkscape:connector-curvature="0" />
    <path
       style="fill:none;fill-rule:evenodd;stroke:#000000;stroke-width:1;stroke-linecap:butt;stroke-linejoin:miter;stroke-miterlimit:4;stroke-dasharray:none;stroke-opacity:1"
       d="m 85.654286,17.59825 c 0,0 -0.37036,-0.885109 0.514629,-1.559071 6.961066,-5.301209 18.084335,0.744492 26.684465,-2.777806 1.05948,-0.433927 2.33901,-1.725039 2.33901,-1.725039 0,0 1.32209,1.262945 2.34746,1.727356 6.99124,3.166451 21.28489,-1.650054 26.99321,2.827985 0.84185,0.660414 0.59631,1.506575 0.59631,1.506575"
       id="path6263"
       inkscape:connector-curvature="0"
       sodipodi:nodetypes="csscssc" />
    <text
       xml:space="preserve"
       style="font-style:normal;font-weight:normal;font-size:20px;line-height:125%;font-family:sans-serif;letter-spacing:0px;word-spacing:0px;fill:#000000;fill-opacity:1;stroke:none;stroke-width:1px;stroke-linecap:butt;stroke-linejoin:miter;stroke-opacity:1"
       x="94.326401"
       y="9.3811493"
       id="text6265"
       sodipodi:linespacing="125%"><tspan
         sodipodi:role="line"
         id="tspan6267"
         x="94.326401"
         y="9.3811493"
         style="font-style:normal;font-variant:normal;font-weight:normal;font-stretch:normal;font-size:12.5px;font-family:'.Helvetica LT MM';-inkscape-font-specification:'.Helvetica LT MM'">removed</tspan></text>
    <path
       sodipodi:nodetypes="csscssc"
       inkscape:connector-curvature="0"
       id="path6269"
       d="m 181.01902,144.80105 c 0,0 0.26133,-0.9232 1.37347,-0.89952 8.74784,0.18628 13.68722,11.84303 22.60993,14.44187 1.09922,0.32016 2.90437,0.10658 2.90437,0.10658 0,0 0.24814,1.81146 0.76131,2.81331 3.49892,6.83091 17.68261,11.96221 19.36099,19.02059 0.24752,1.04095 -0.47148,1.55017 -0.47148,1.55017"
       style="fill:none;fill-rule:evenodd;stroke:#000000;stroke-width:1;stroke-linecap:butt;stroke-linejoin:miter;stroke-miterlimit:4;stroke-dasharray:none;stroke-opacity:1" />
    <text
       sodipodi:linespacing="125%"
       id="text6271"
       y="153.3302"
       x="199.43205"
       style="font-style:normal;font-weight:normal;font-size:20px;line-height:125%;font-family:sans-serif;letter-spacing:0px;word-spacing:0px;fill:#000000;fill-opacity:1;stroke:none;stroke-width:1px;stroke-linecap:butt;stroke-linejoin:miter;stroke-opacity:1"
       xml:space="preserve"><tspan
         style="font-style:normal;font-variant:normal;font-weight:normal;font-stretch:normal;font-size:12.5px;font-family:'.Helvetica LT MM';-inkscape-font-specification:'.Helvetica LT MM'"
         y="153.3302"
         x="199.43205"
         id="tspan6273"
         sodipodi:role="line">removed</tspan></text>
  </g>
</svg>
